<?xml version="1.0" encoding="utf-8"?>
<!-- Generator: Adobe Illustrator 21.0.2, SVG Export Plug-In . SVG Version: 6.00 Build 0)  -->
<svg version="1.1" id="Layer_1" xmlns="http://www.w3.org/2000/svg" xmlns:xlink="http://www.w3.org/1999/xlink" x="0px" y="0px"
	 viewBox="0 0 50 50" style="enable-background:new 0 0 50 50;" xml:space="preserve">
<style type="text/css">
	.st0{fill:#FFFFFF;}
	.st1{fill:#0D72B9;}
</style>
<g id="linkedin">
	<circle class="st0" cx="25" cy="25" r="25"/>
	<g>
		<rect x="9.4" y="20.3" class="st1" width="8.4" height="19.6"/>
		<rect x="19.5" y="20.3" class="st1" width="8.4" height="19.6"/>
		<rect x="32.2" y="27.1" class="st1" width="8.4" height="12.8"/>
		<path class="st1" d="M26.9,29.1l0.9-2.9c0,0,1.2-1.3,2.7-1.2c0,0,1.6-0.1,1.6,2.1s8.4,1.7,8.4,1.7v-1.7c0-2.3-1-4.5-2.7-6.1
			c-2-1.8-5.4-2.9-7.8-1.3c-0.6,0.4-2.3,1.8-2.7,2.9C27,23.8,26.9,29.1,26.9,29.1z"/>
		<circle class="st1" cx="13.6" cy="14.2" r="4.2"/>
	</g>
</g>
</svg>
