<?xml version="1.0" encoding="utf-8"?>
<!-- Generator: Adobe Illustrator 21.0.2, SVG Export Plug-In . SVG Version: 6.00 Build 0)  -->
<svg version="1.1" id="Layer_1" xmlns="http://www.w3.org/2000/svg" xmlns:xlink="http://www.w3.org/1999/xlink" x="0px" y="0px"
	 viewBox="0 0 631.9 69" style="enable-background:new 0 0 631.9 69;" xml:space="preserve">
<style type="text/css">
	.st0{fill:#0071BC;}
	.st1{fill:#FFFFFF;}
	.st2{fill:none;stroke:#FFFFFF;stroke-width:2.0414;stroke-miterlimit:10;}
	.st3{fill:#1B75BB;}
	.st4{fill:none;stroke:#FFFFFF;stroke-width:4.6476;}
</style>
<rect x="-10.2" y="-3.6" class="st0" width="661.2" height="80"/>
<g id="logo">
	<g>
		<path class="st1" d="M62.1,44.8v9c-0.6-0.3-1.1-0.5-1.6-0.5c-1.5,0-2.3,1.2-2.3,3.5v10.6h-8.4V55.2c0-3.2,0.9-5.8,2.7-7.7
			c1.8-1.9,4.1-2.9,7.1-2.9C60.2,44.5,61,44.6,62.1,44.8z"/>
		<path class="st1" d="M64.5,45.3h8.4V58c0,1.3,0.5,1.9,1.6,1.9c1,0,1.6-0.6,1.6-1.9V45.3h8.4v12.5c0,2.9-1,5.4-2.9,7.4
			s-4.3,3-7.1,3c-3.2,0-5.8-1.2-7.7-3.5c-1.5-1.8-2.3-4.3-2.3-7.6V45.3z"/>
		<path class="st1" d="M120.1,67.4h-8.4V55.3c0-0.9-0.1-1.6-0.3-1.9c-0.2-0.4-0.5-0.5-1.1-0.5c-0.9,0-1.4,0.8-1.4,2.5v12.1h-8.4
			V55.3c0-0.9-0.1-1.6-0.3-1.9c-0.2-0.4-0.6-0.5-1.1-0.5c-0.9,0-1.4,0.8-1.4,2.5v12.1h-8.4V53.6c0-2.5,0.8-4.7,2.5-6.4
			c1.7-1.8,3.7-2.6,6.2-2.6c2.5,0,4.7,1,6.7,3.1c2.2-2.1,4.4-3.1,6.6-3.1c2.8,0,5,1,6.7,3.1c1.3,1.6,2,3.9,2,6.9V67.4z"/>
		<path class="st1" d="M138.8,57.1l8.3-0.3c-0.2,3.2-1.4,5.9-3.6,8c-2.2,2.1-4.8,3.1-7.9,3.1c-3.3,0-6.1-1.1-8.3-3.4
			c-2.3-2.3-3.4-5.1-3.4-8.4c0-3.2,1.1-5.9,3.4-8.1s5-3.4,8.2-3.4c2.8,0,5.3,0.9,7.4,2.7c2.1,1.8,3.5,4,4,6.8l-8.5,0.3
			c-0.7-1-1.7-1.4-2.8-1.4c-1,0-1.7,0.3-2.4,0.9c-0.6,0.6-0.9,1.4-0.9,2.4c0,1,0.3,1.8,1,2.4c0.7,0.7,1.5,1,2.4,1
			C137.2,59.6,138.2,58.8,138.8,57.1z"/>
		<path class="st1" d="M161.5,44.5c3.2,0,5.9,1.1,8.2,3.4c2.3,2.3,3.4,5,3.4,8.2c0,3.2-1.1,6-3.4,8.3c-2.3,2.3-5.1,3.4-8.3,3.4
			c-3.3,0-6-1.1-8.3-3.4c-2.3-2.3-3.5-5-3.5-8.3c0-3.3,1.2-6,3.5-8.3C155.2,45.7,158.1,44.5,161.5,44.5z M161.2,52.8
			c-0.9,0-1.7,0.3-2.3,1c-0.6,0.7-0.9,1.4-0.9,2.4c0,0.9,0.3,1.7,1,2.4c0.6,0.7,1.4,1,2.3,1c0.9,0,1.7-0.3,2.3-1
			c0.6-0.7,1-1.5,1-2.4c0-0.9-0.3-1.7-0.9-2.4C162.9,53.1,162.1,52.8,161.2,52.8z"/>
		<path class="st1" d="M196.5,67.4h-8.4V54.8c0-1.3-0.5-1.9-1.6-1.9c-1,0-1.6,0.6-1.6,1.9v12.7h-8.4V54.9c0-2.9,1-5.4,2.9-7.4
			c1.9-2,4.3-3,7.1-3c3.2,0,5.8,1.2,7.7,3.5c1.5,1.8,2.3,4.3,2.3,7.6V67.4z"/>
		<path class="st1" d="M215.2,36.7h8.4v18.7c0,3.4-0.9,6.2-2.7,8.4c-1,1.2-2.3,2.2-3.9,3c-1.6,0.7-3.2,1.1-4.9,1.1
			c-3.3,0-6.2-1.1-8.4-3.4c-2.3-2.2-3.4-5-3.4-8.3c0-3.2,1.1-5.9,3.4-8.2c2.3-2.3,5-3.5,8.1-3.5c0.5,0,1.2,0,2.2,0.1v9.3
			c-0.7-0.5-1.4-0.8-2.1-0.8c-0.9,0-1.6,0.3-2.2,1c-0.6,0.6-0.9,1.4-0.9,2.3c0,0.9,0.3,1.6,1,2.2c0.6,0.6,1.4,0.9,2.3,0.9
			c2.2,0,3.2-1.5,3.2-4.5V36.7z"/>
		<path class="st1" d="M240.3,44.8v9c-0.6-0.3-1.1-0.5-1.6-0.5c-1.5,0-2.3,1.2-2.3,3.5v10.6H228V55.2c0-3.2,0.9-5.8,2.7-7.7
			c1.8-1.9,4.1-2.9,7.1-2.9C238.4,44.5,239.3,44.6,240.3,44.8z"/>
		<path class="st1" d="M255.2,59v8.7c-0.7,0.1-1.3,0.2-1.9,0.2c-3.4,0-6.2-1.1-8.4-3.3c-2.2-2.2-3.4-5-3.4-8.3c0-3.3,1.1-6,3.4-8.3
			c2.3-2.3,5-3.4,8.3-3.4c3.6,0,6.5,1.1,8.6,3.2c2.1,2.1,3.1,5,3.1,8.7v11h-8.4V57c0-1.2-0.3-2.1-0.9-2.8c-0.6-0.7-1.4-1.1-2.3-1.1
			c-0.9,0-1.6,0.3-2.3,1c-0.6,0.6-1,1.4-1,2.3c0,0.9,0.3,1.7,0.9,2.3c0.6,0.6,1.3,0.9,2.2,0.9C253.9,59.6,254.6,59.4,255.2,59z"/>
		<path class="st1" d="M323.5,44.7h8.4v12.7c0,1.3,0.5,1.9,1.6,1.9c1,0,1.6-0.6,1.6-1.9V44.7h8.4v12.5c0,2.9-1,5.4-2.9,7.4
			c-1.9,2-4.3,3-7.1,3c-3.2,0-5.8-1.2-7.7-3.5c-1.5-1.8-2.3-4.3-2.3-7.6V44.7z"/>
		<path class="st1" d="M362.5,44.7v8.9c-1.2,0-2,0.2-2.4,0.7c-0.4,0.4-0.7,1.3-0.8,2.6c-0.4,4.3-2.1,7.4-5,9.2
			c-1.6,0.9-3.8,1.4-6.7,1.4h-1.2v-8.9h0.4c1.3,0,2.3-0.3,2.9-0.8c0.6-0.6,0.9-1.5,1-3c0.1-2.3,0.3-3.9,0.6-4.8
			c0.3-0.9,0.9-1.8,1.9-2.8c1.6-1.6,3.9-2.4,6.9-2.4H362.5z"/>
		<path class="st1" d="M373.6,44.4v22.4h-8.4V44.4H373.6z M369.4,34.4c1.1,0,2.1,0.4,3,1.2c0.8,0.8,1.2,1.7,1.2,2.8
			c0,1.2-0.4,2.1-1.2,2.9c-0.8,0.7-1.8,1.1-3,1.1c-1.2,0-2.2-0.4-3-1.1c-0.8-0.7-1.2-1.7-1.2-2.9c0-1.1,0.4-2,1.2-2.8
			C367.3,34.8,368.3,34.4,369.4,34.4z"/>
		<path class="st1" d="M398.5,66.8h-8.4V54.1c0-1.3-0.5-1.9-1.6-1.9c-1,0-1.6,0.6-1.6,1.9v12.7h-8.4V54.3c0-2.9,1-5.4,2.9-7.4
			c1.9-2,4.3-3,7.1-3c3.2,0,5.8,1.2,7.7,3.5c1.5,1.8,2.3,4.3,2.3,7.6V66.8z"/>
		<path class="st1" d="M425.5,56.9h-12.7c-0.2-0.6-0.3-1.2-0.3-1.8c0-0.7,0.1-1.5,0.4-2.2h4.3c-0.3-1.7-1.2-2.5-2.8-2.5
			c-1,0-1.9,0.4-2.6,1.3c-0.7,0.9-1,2-1,3.4c0,1.5,0.3,2.6,1,3.5c0.6,0.9,1.5,1.3,2.5,1.3c0.8,0,1.6-0.4,2.4-1.3l4.8,5.8
			c-2.2,1.8-4.7,2.6-7.4,2.6c-3.3,0-6.1-1.1-8.4-3.3c-2.3-2.2-3.4-5-3.4-8.3c0-3.3,1.1-6.1,3.4-8.3c2.3-2.3,5.1-3.4,8.4-3.4
			c3.3,0,6,1.1,8.2,3.3c2.2,2.2,3.3,4.9,3.3,8.2C425.5,55.7,425.5,56.2,425.5,56.9z"/>
		<path class="st1" d="M443,44.7v8.9c-1.2,0-2,0.2-2.4,0.7c-0.4,0.4-0.7,1.3-0.8,2.6c-0.4,4.3-2.1,7.4-5,9.2
			c-1.6,0.9-3.8,1.4-6.7,1.4h-1.2v-8.9h0.4c1.3,0,2.3-0.3,2.9-0.8c0.6-0.6,0.9-1.5,1-3c0.1-2.3,0.3-3.9,0.6-4.8
			c0.3-0.9,0.9-1.8,1.9-2.8c1.6-1.6,3.9-2.4,6.9-2.4H443z"/>
		<path class="st1" d="M459.8,44.7v8.9c-1.2,0-2,0.2-2.4,0.7c-0.4,0.4-0.7,1.3-0.8,2.6c-0.4,4.3-2.1,7.4-5,9.2
			c-1.6,0.9-3.8,1.4-6.7,1.4h-1.2v-8.9h0.4c1.3,0,2.3-0.3,2.9-0.8c0.6-0.6,0.9-1.5,1-3c0.1-2.3,0.3-3.9,0.6-4.8
			c0.3-0.9,0.9-1.8,1.9-2.8c1.6-1.6,3.9-2.4,6.9-2.4H459.8z"/>
		<path class="st1" d="M550.1,58.7h-12.7c-0.2-0.6-0.3-1.2-0.3-1.8c0-0.7,0.1-1.5,0.4-2.2h4.3c-0.3-1.7-1.2-2.5-2.8-2.5
			c-1,0-1.9,0.4-2.6,1.3c-0.7,0.9-1,2-1,3.4c0,1.5,0.3,2.6,1,3.5s1.5,1.3,2.5,1.3c0.8,0,1.6-0.4,2.4-1.3l4.8,5.8
			c-2.2,1.8-4.7,2.6-7.4,2.6c-3.3,0-6.1-1.1-8.4-3.3c-2.3-2.2-3.4-5-3.4-8.3c0-3.3,1.1-6.1,3.4-8.3c2.3-2.3,5.1-3.4,8.4-3.4
			c3.3,0,6,1.1,8.2,3.3c2.2,2.2,3.3,4.9,3.3,8.2C550.2,57.5,550.2,58,550.1,58.7z"/>
		<path class="st1" d="M573.6,68.6h-8.4V55.9c0-1.3-0.5-1.9-1.6-1.9c-1,0-1.6,0.6-1.6,1.9v12.7h-8.4V56.1c0-2.9,1-5.4,2.9-7.4
			s4.3-3,7.1-3c3.2,0,5.8,1.2,7.7,3.5c1.5,1.8,2.3,4.3,2.3,7.6V68.6z"/>
		<path class="st1" d="M586,37.9v8.6h3.8v8.9H586c0,1.8,0.3,3,0.8,3.7c0.6,0.7,1.6,1,3.1,1v8.8c-0.4,0-0.8,0-1,0
			c-1.9,0-3.7-0.4-5.4-1.3c-1.7-0.9-3-2.1-4.1-3.6c-1.3-1.9-1.9-4.5-1.9-7.7V37.9H586z"/>
		<path class="st1" d="M606.2,45.9v9c-0.6-0.3-1.1-0.5-1.6-0.5c-1.5,0-2.3,1.2-2.3,3.5v10.6h-8.4V56.3c0-3.2,0.9-5.8,2.7-7.7
			c1.8-1.9,4.1-2.9,7.1-2.9C604.3,45.7,605.1,45.8,606.2,45.9z"/>
		<path class="st1" d="M631.8,58.7h-12.7c-0.2-0.6-0.3-1.2-0.3-1.8c0-0.7,0.1-1.5,0.4-2.2h4.3c-0.3-1.7-1.2-2.5-2.8-2.5
			c-1,0-1.9,0.4-2.6,1.3c-0.7,0.9-1,2-1,3.4c0,1.5,0.3,2.6,1,3.5s1.5,1.3,2.5,1.3c0.8,0,1.6-0.4,2.4-1.3l4.8,5.8
			c-2.2,1.8-4.7,2.6-7.4,2.6c-3.3,0-6.1-1.1-8.4-3.3c-2.3-2.2-3.4-5-3.4-8.3c0-3.3,1.1-6.1,3.4-8.3c2.3-2.3,5.1-3.4,8.4-3.4
			c3.3,0,6,1.1,8.2,3.3c2.2,2.2,3.3,4.9,3.3,8.2C631.9,57.5,631.9,58,631.8,58.7z"/>
	</g>
	<g>
		<path class="st1" d="M125.9,30.4c0,0-21.4-22.5-25.8-27.1c-0.9-0.9-2.3-2.1-3.6-1.9c-1.1,0.1-2.2,1.2-3,1.9
			c-4.4,4.7-25.8,27.1-25.8,27.1c-1.2,1.3-3,3.1-3.2,5.1c0,0.3,0,0.6,0.1,0.9c0.3,0.7,1.1,1.1,1.8,1.1c1.2,0.1,2.4-0.2,3.4-0.8
			c2.1-1.2,4-2.9,5.9-4.4c2.1-1.5,4.1-3,6.3-4.4c4.4-2.7,9.4-5.1,14.6-5.2c5.2,0.1,10.2,2.4,14.6,5.2c2.2,1.3,4.3,2.8,6.3,4.4
			c1.9,1.4,3.8,3.2,5.9,4.4c1,0.6,2.2,1,3.4,0.8c0.7-0.1,1.5-0.4,1.8-1.1c0.1-0.3,0.1-0.6,0.1-0.9C128.9,33.5,127.1,31.7,125.9,30.4
			z"/>
		<path class="st2" d="M125.9,30.4c0,0-21.4-22.5-25.8-27.1c-0.9-0.9-2.3-2.1-3.6-1.9c-1.1,0.1-2.2,1.2-3,1.9
			c-4.4,4.7-25.8,27.1-25.8,27.1c-1.2,1.3-3,3.1-3.2,5.1c0,0.3,0,0.6,0.1,0.9c0.3,0.7,1.1,1.1,1.8,1.1c1.2,0.1,2.4-0.2,3.4-0.8
			c2.1-1.2,4-2.9,5.9-4.4c2.1-1.5,4.1-3,6.3-4.4c4.4-2.7,9.4-5.1,14.6-5.2c5.2,0.1,10.2,2.4,14.6,5.2c2.2,1.3,4.3,2.8,6.3,4.4
			c1.9,1.4,3.8,3.2,5.9,4.4c1,0.6,2.2,1,3.4,0.8c0.7-0.1,1.5-0.4,1.8-1.1c0.1-0.3,0.1-0.6,0.1-0.9C128.9,33.5,127.1,31.7,125.9,30.4
			z"/>
	</g>
	<g>
		<path class="st3" d="M125,34.4c0,0-9.4-9.9-11.4-12c-0.4-0.4-1-0.9-1.6-0.9c-0.5,0.1-1,0.5-1.3,0.9c-2,2.1-11.4,12-11.4,12
			c-0.5,0.6-1.3,1.4-1.4,2.2c0,0.1,0,0.3,0.1,0.4c0.1,0.3,0.5,0.5,0.8,0.5c0.5,0.1,1-0.1,1.5-0.4c0.9-0.5,1.8-1.3,2.6-1.9
			c0.9-0.7,1.8-1.3,2.8-1.9c2-1.2,4.2-2.2,6.5-2.3c2.3,0,4.5,1.1,6.5,2.3c1,0.6,1.9,1.3,2.8,1.9c0.9,0.6,1.7,1.4,2.6,1.9
			c0.5,0.3,1,0.4,1.5,0.4c0.3,0,0.7-0.2,0.8-0.5c0.1-0.1,0.1-0.3,0.1-0.4C126.3,35.8,125.5,35,125,34.4z"/>
		<path class="st2" d="M125,34.4c0,0-9.4-9.9-11.4-12c-0.4-0.4-1-0.9-1.6-0.9c-0.5,0.1-1,0.5-1.3,0.9c-2,2.1-11.4,12-11.4,12
			c-0.5,0.6-1.3,1.4-1.4,2.2c0,0.1,0,0.3,0.1,0.4c0.1,0.3,0.5,0.5,0.8,0.5c0.5,0.1,1-0.1,1.5-0.4c0.9-0.5,1.8-1.3,2.6-1.9
			c0.9-0.7,1.8-1.3,2.8-1.9c2-1.2,4.2-2.2,6.5-2.3c2.3,0,4.5,1.1,6.5,2.3c1,0.6,1.9,1.3,2.8,1.9c0.9,0.6,1.7,1.4,2.6,1.9
			c0.5,0.3,1,0.4,1.5,0.4c0.3,0,0.7-0.2,0.8-0.5c0.1-0.1,0.1-0.3,0.1-0.4C126.3,35.8,125.5,35,125,34.4z"/>
	</g>
	<g>
		<path class="st1" d="M135.5,30.4c0,0,21.4-22.5,25.8-27.1c0.9-0.9,2.3-2.1,3.6-1.9c1.1,0.1,2.2,1.2,3,1.9
			c4.4,4.7,25.8,27.1,25.8,27.1c1.2,1.3,3,3.1,3.2,5.1c0,0.3,0,0.6-0.1,0.9c-0.3,0.7-1.1,1.1-1.8,1.1c-1.2,0.1-2.4-0.2-3.4-0.8
			c-2.1-1.2-4-2.9-5.9-4.4c-2.1-1.5-4.1-3-6.3-4.4c-4.4-2.7-9.4-5.1-14.6-5.2c-5.2,0.1-10.2,2.4-14.6,5.2c-2.2,1.3-4.3,2.8-6.3,4.4
			c-1.9,1.4-3.8,3.2-5.9,4.4c-1,0.6-2.2,1-3.4,0.8c-0.7-0.1-1.5-0.4-1.8-1.1c-0.1-0.3-0.1-0.6-0.1-0.9
			C132.5,33.5,134.3,31.7,135.5,30.4z"/>
		<path class="st2" d="M135.5,30.4c0,0,21.4-22.5,25.8-27.1c0.9-0.9,2.3-2.1,3.6-1.9c1.1,0.1,2.2,1.2,3,1.9
			c4.4,4.7,25.8,27.1,25.8,27.1c1.2,1.3,3,3.1,3.2,5.1c0,0.3,0,0.6-0.1,0.9c-0.3,0.7-1.1,1.1-1.8,1.1c-1.2,0.1-2.4-0.2-3.4-0.8
			c-2.1-1.2-4-2.9-5.9-4.4c-2.1-1.5-4.1-3-6.3-4.4c-4.4-2.7-9.4-5.1-14.6-5.2c-5.2,0.1-10.2,2.4-14.6,5.2c-2.2,1.3-4.3,2.8-6.3,4.4
			c-1.9,1.4-3.8,3.2-5.9,4.4c-1,0.6-2.2,1-3.4,0.8c-0.7-0.1-1.5-0.4-1.8-1.1c-0.1-0.3-0.1-0.6-0.1-0.9
			C132.5,33.5,134.3,31.7,135.5,30.4z"/>
	</g>
	<g>
		<path class="st3" d="M136.4,34.4c0,0,9.4-9.9,11.4-12c0.4-0.4,1-0.9,1.6-0.9c0.5,0.1,1,0.5,1.3,0.9c2,2.1,11.4,12,11.4,12
			c0.5,0.6,1.3,1.4,1.4,2.2c0,0.1,0,0.3-0.1,0.4c-0.1,0.3-0.5,0.5-0.8,0.5c-0.5,0.1-1-0.1-1.5-0.4c-0.9-0.5-1.8-1.3-2.6-1.9
			c-0.9-0.7-1.8-1.3-2.8-1.9c-2-1.2-4.2-2.2-6.5-2.3c-2.3,0-4.5,1.1-6.5,2.3c-1,0.6-1.9,1.3-2.8,1.9c-0.9,0.6-1.7,1.4-2.6,1.9
			c-0.5,0.3-1,0.4-1.5,0.4c-0.3,0-0.7-0.2-0.8-0.5c-0.1-0.1-0.1-0.3-0.1-0.4C135.1,35.8,135.9,35,136.4,34.4z"/>
		<path class="st2" d="M136.4,34.4c0,0,9.4-9.9,11.4-12c0.4-0.4,1-0.9,1.6-0.9c0.5,0.1,1,0.5,1.3,0.9c2,2.1,11.4,12,11.4,12
			c0.5,0.6,1.3,1.4,1.4,2.2c0,0.1,0,0.3-0.1,0.4c-0.1,0.3-0.5,0.5-0.8,0.5c-0.5,0.1-1-0.1-1.5-0.4c-0.9-0.5-1.8-1.3-2.6-1.9
			c-0.9-0.7-1.8-1.3-2.8-1.9c-2-1.2-4.2-2.2-6.5-2.3c-2.3,0-4.5,1.1-6.5,2.3c-1,0.6-1.9,1.3-2.8,1.9c-0.9,0.6-1.7,1.4-2.6,1.9
			c-0.5,0.3-1,0.4-1.5,0.4c-0.3,0-0.7-0.2-0.8-0.5c-0.1-0.1-0.1-0.3-0.1-0.4C135.1,35.8,135.9,35,136.4,34.4z"/>
	</g>
	<g>
		<g>
			<path class="st1" d="M15.7,35.5v31.5H2.5V22.8h17.1c7.5,0,13.4,1.7,17.6,5.1c5,4.1,7.6,9.6,7.6,16.6c0,6.7-2.2,12.1-6.5,16.4
				c-4.3,4.2-9.9,6.3-16.6,6.3c-0.8,0-2.1,0-3.9-0.1v-13h2.1c7.6,0,11.5-3.2,11.5-9.6c0-6-3.8-9-11.3-9H15.7z"/>
			<path class="st1" d="M283.9,22.9h16c9.5,0,14.3,3.7,14.3,11.2c0,3.7-1.6,6.8-4.9,9.2c4.7,2,7.1,5.7,7.1,11c0,4-1.4,7.2-4.2,9.6
				c-1.4,1.1-2.8,1.9-4.4,2.4c-1.6,0.5-3.6,0.7-6.3,0.7h-2.5V55.7h2.2c1.3,0,2.2-0.2,2.8-0.5c0.5-0.3,0.8-0.9,0.8-1.8
				c0-1.4-1.1-2.1-3.3-2.1h-2.5V39.6c2.4,0,3.6-0.8,3.6-2.5c0-1.5-1.1-2.3-3.3-2.3h-2.4v32.3h-13.1V22.9z"/>
			<path class="st1" d="M507.3,46.8l14.1-0.3c-0.9,7.1-3.2,11.4-7.2,15.3c-4,3.9-9.3,5.8-15.7,5.8c-6.6,0-12.1-2.2-16.5-6.6
				c-4.4-4.4-6.6-9.9-6.6-16.4c0-6.6,2.3-12.1,6.8-16.6c4.5-4.5,10.1-6.7,16.7-6.7c6.5,0,11.9,2.2,16.3,6.6c3,3,4.9,6.3,6.2,11.7
				l-14.1,0.8c-1.4-2.5-3-5.7-8.6-6.1c-2.8-0.2-5.1,1-6.9,2.9c-1.8,1.9-2.7,4.4-2.7,7.4c0,2.9,0.9,5.3,2.7,7.2
				c1.8,1.9,4.1,2.8,6.8,2.8c2.8,0,5-0.8,6.6-2.5C506.6,50.4,507,49.9,507.3,46.8z"/>
		</g>
		<g>
			<path class="st3" d="M15.7,35.5v31.5H2.5V22.8h17.1c7.5,0,13.4,1.7,17.6,5.1c5,4.1,7.6,9.6,7.6,16.6c0,6.7-2.2,12.1-6.5,16.4
				c-4.3,4.2-9.9,6.3-16.6,6.3c-0.8,0-2.1,0-3.9-0.1v-13h2.1c7.6,0,11.5-3.2,11.5-9.6c0-6-3.8-9-11.3-9H15.7z"/>
			<path class="st3" d="M283.9,22.9h16c9.5,0,14.3,3.7,14.3,11.2c0,3.7-1.6,6.8-4.9,9.2c4.7,2,7.1,5.7,7.1,11c0,4-1.4,7.2-4.2,9.6
				c-1.4,1.1-2.8,1.9-4.4,2.4c-1.6,0.5-3.6,0.7-6.3,0.7h-2.5V55.7h2.2c1.3,0,2.2-0.2,2.8-0.5c0.5-0.3,0.8-0.9,0.8-1.8
				c0-1.4-1.1-2.1-3.3-2.1h-2.5V39.6c2.4,0,3.6-0.8,3.6-2.5c0-1.5-1.1-2.3-3.3-2.3h-2.4v32.3h-13.1V22.9z"/>
			<path class="st3" d="M507.3,46.8l14.1-0.3c-0.9,7.1-3.2,11.4-7.2,15.3c-4,3.9-9.3,5.8-15.7,5.8c-6.6,0-12.1-2.2-16.5-6.6
				c-4.4-4.4-6.6-9.9-6.6-16.4c0-6.6,2.3-12.1,6.8-16.6c4.5-4.5,10.1-6.7,16.7-6.7c6.5,0,11.9,2.2,16.3,6.6c3,3,4.9,6.3,6.2,11.7
				l-14.1,0.8c-1.4-2.5-3-5.7-8.6-6.1c-2.8-0.2-5.1,1-6.9,2.9c-1.8,1.9-2.7,4.4-2.7,7.4c0,2.9,0.9,5.3,2.7,7.2
				c1.8,1.9,4.1,2.8,6.8,2.8c2.8,0,5-0.8,6.6-2.5C506.6,50.4,507,49.9,507.3,46.8z"/>
		</g>
		<g>
			<path class="st4" d="M15.7,35.5v31.5H2.5V22.8h17.1c7.5,0,13.4,1.7,17.6,5.1c5,4.1,7.6,9.6,7.6,16.6c0,6.7-2.2,12.1-6.5,16.4
				c-4.3,4.2-9.9,6.3-16.6,6.3c-0.8,0-2.1,0-3.9-0.1v-13h2.1c7.6,0,11.5-3.2,11.5-9.6c0-6-3.8-9-11.3-9H15.7z"/>
			<path class="st4" d="M283.9,22.9h16c9.5,0,14.3,3.7,14.3,11.2c0,3.7-1.6,6.8-4.9,9.2c4.7,2,7.1,5.7,7.1,11c0,4-1.4,7.2-4.2,9.6
				c-1.4,1.1-2.8,1.9-4.4,2.4c-1.6,0.5-3.6,0.7-6.3,0.7h-2.5V55.7h2.2c1.3,0,2.2-0.2,2.8-0.5c0.5-0.3,0.8-0.9,0.8-1.8
				c0-1.4-1.1-2.1-3.3-2.1h-2.5V39.6c2.4,0,3.6-0.8,3.6-2.5c0-1.5-1.1-2.3-3.3-2.3h-2.4v32.3h-13.1V22.9z"/>
			<path class="st4" d="M507.3,46.8l14.1-0.3c-0.9,7.1-3.2,11.4-7.2,15.3c-4,3.9-9.3,5.8-15.7,5.8c-6.6,0-12.1-2.2-16.5-6.6
				c-4.4-4.4-6.6-9.9-6.6-16.4c0-6.6,2.3-12.1,6.8-16.6c4.5-4.5,10.1-6.7,16.7-6.7c6.5,0,11.9,2.2,16.3,6.6c3,3,4.9,6.3,6.2,11.7
				l-14.1,0.8c-1.4-2.5-3-5.7-8.6-6.1c-2.8-0.2-5.1,1-6.9,2.9c-1.8,1.9-2.7,4.4-2.7,7.4c0,2.9,0.9,5.3,2.7,7.2
				c1.8,1.9,4.1,2.8,6.8,2.8c2.8,0,5-0.8,6.6-2.5C506.6,50.4,507,49.9,507.3,46.8z"/>
		</g>
	</g>
</g>
</svg>
